<svg width="61" height="62" xmlns="http://www.w3.org/2000/svg" xmlns:xlink="http://www.w3.org/1999/xlink" xml:space="preserve" overflow="hidden"><defs><clipPath id="clip0"><rect x="576" y="294" width="61" height="62"/></clipPath></defs><g clip-path="url(#clip0)" transform="translate(-576 -294)"><path d="M30.4365 53.8833C31.1143 53.8833 31.6331 53.7669 31.9932 53.5339 32.3533 53.3008 32.5333 52.9514 32.5333 52.4854 32.5333 52.0195 32.3533 51.6594 31.9932 51.4052 31.6331 51.151 31.093 51.024 30.3729 51.024 28.5938 51.024 26.7828 50.4627 24.9401 49.3401 23.0974 48.2175 21.9219 46.2372 21.4135 43.399 21.3288 43.0177 21.1382 42.7106 20.8417 42.4776 20.5451 42.2446 20.2274 42.1281 19.8885 42.1281 19.4226 42.1281 19.0625 42.3081 18.8083 42.6682 18.5542 43.0283 18.4695 43.399 18.5542 43.7802 19.1896 47.3385 20.6934 49.912 23.0656 51.5005 25.4378 53.0891 27.8948 53.8833 30.4365 53.8833ZM30.5 62.0167C24.6965 62.0167 19.8568 60.0257 15.9807 56.0438 12.1047 52.0618 10.1667 47.1055 10.1667 41.175 10.1667 36.9389 11.8505 32.3321 15.2182 27.3547 18.5859 22.3773 23.6799 16.9868 30.5 11.1833 37.3201 16.9868 42.4141 22.3773 45.7818 27.3547 49.1495 32.3321 50.8333 36.9389 50.8333 41.175 50.8333 47.1055 48.8953 52.0618 45.0193 56.0438 41.1432 60.0257 36.3035 62.0167 30.5 62.0167ZM30.5 58.2042C35.2445 58.2042 39.184 56.5839 42.3187 53.3432 45.4534 50.1026 47.0208 46.0465 47.0208 41.175 47.0208 37.8284 45.6123 34.0266 42.7953 29.7693 39.9783 25.512 35.8799 21.0111 30.5 16.2667 25.1201 21.0111 21.0217 25.512 18.2047 29.7693 15.3877 34.0266 13.9792 37.8284 13.9792 41.175 13.9792 46.0465 15.5465 50.1026 18.6812 53.3432 21.816 56.5839 25.7555 58.2042 30.5 58.2042Z" fill="#0070C0" transform="matrix(1 0 0 1.01639 576 287.8)"/></g></svg>